/* XPM */
static char *tile0101706625000[] = {
/* columns rows colors chars-per-pixel */
"16 16 6 1 ",
"  c None",
". c black",
"X c #E64539",
"o c #AD2F45",
"O c #FF8933",
"+ c #FFC2A1",
/* pixels */
"                ",
"      ....      ",
"     .+XXX.     ",
"    .+O+XXX.    ",
"   .+O+O+XXX.   ",
"   .OoO++XXX.   ",
"   .OoO++XXX.   ",
"   .OoO++XXX.   ",
"   .OoO++XXX.   ",
"   .OoO++XXX.   ",
"   .OoO++XXX.   ",
"   .OOoO+XXX.   ",
"    .OOOXXX.    ",
"     .XXXX.     ",
"      ....      ",
"                "
};
