/* XPM */
static char *tile0111706625000[] = {
/* columns rows colors chars-per-pixel */
"16 16 6 1 ",
"  c None",
". c black",
"X c #E64539",
"o c #AD2F45",
"O c #FF8933",
"+ c #FFC2A1",
/* pixels */
"                ",
"      .....     ",
"     .+++XX.    ",
"    .OOOO+XX.   ",
"   .OO++OO+XX.  ",
"   .OoOO+O+XX.  ",
"   .OoOO+O+XX.  ",
"   .OoOO+O+XX.  ",
"   .OoOO+O+XX.  ",
"   .OoOO+O+XX.  ",
"   .OoOO+O+XX.  ",
"   .OOooOO+XX.  ",
"    .OOOO+XX.   ",
"     .OOOXX.    ",
"      .....     ",
"                "
};
