/* XPM */
static char *tile0031706624999[] = {
/* columns rows colors chars-per-pixel */
"16 16 6 1 ",
"  c None",
". c black",
"X c #E64539",
"o c #AD2F45",
"O c #FF8933",
"+ c #FFC2A1",
/* pixels */
"                ",
"      .....     ",
"     .XX+++.    ",
"    .XXOOOO+.   ",
"   .XXOO++OO+.  ",
"   .XXOoOO+O+.  ",
"   .XXOoOO+O+.  ",
"   .XXOoOO+O+.  ",
"   .XXOoOO+O+.  ",
"   .XXOoOO+O+.  ",
"   .XXOoOO+O+.  ",
"   .XXOOooOO+.  ",
"    .XXOOOO+.   ",
"     .XXXXX.    ",
"      .....     ",
"                "
};
