/* XPM */
static char *tile0131706625000[] = {
/* columns rows colors chars-per-pixel */
"16 16 6 1 ",
"  c None",
". c black",
"X c #E64539",
"o c #AD2F45",
"O c #FF8933",
"+ c #FFC2A1",
/* pixels */
"                ",
"     .......    ",
"    .++++++X.   ",
"   .OOOOOOO+X.  ",
"  .OO+++++OO+X. ",
"  .OoOOOOO+O+X. ",
"  .OoOOOOO+O+X. ",
"  .OoOOOOO+O+X. ",
"  .OoOOOOO+O+X. ",
"  .OoOOOOO+O+X. ",
"  .OoOOOOO+O+X. ",
"  .OOoooooOO+X. ",
"   .OOOOOOO+X.  ",
"    .XXXXXXX.   ",
"     .......    ",
"                "
};
