/* XPM */
static char *_1dfab560e524713aaaf518d668ceddb[] = {
/* columns rows colors chars-per-pixel */
"16 16 7 1 ",
"  c None",
". c #141B1B",
"X c #D14B34",
"o c #965340",
"O c #EF914F",
"+ c #548789",
"@ c #E3F1F5",
/* pixels */
"                ",
"    .... ...    ",
"   .ooo..XXX....",
"  .XXXXXXXXXXXX.",
" .ooXXXXXXXXXX. ",
" .oooXXXXXXXooo.",
" .ooooooooooooo.",
" ..oooooooooooo.",
" .oooooooooooo. ",
" .OooooooooooO. ",
" .OOooooooooOO. ",
"  .OOOOOOOOOO.  ",
"  ..@@@@@@@@..  ",
" .OO@@@@@@@@OO. ",
" .OO++++++++OO. ",
"  ..++++++++..  "
};
