/* XPM */
static char *f6d05567260d4edbd1f924dc004e1635mV2lfgI70Wkhctd3[] = {
/* columns rows colors chars-per-pixel */
"32 32 65 1 ",
"  c None",
". c #4C9261",
"X c #4E9461",
"o c #599F61",
"O c #579D61",
"+ c #438A60",
"@ c #539961",
"# c #468D60",
"$ c #4C8755",
"% c #3C744E",
"& c #62A762",
"* c #3B7854",
"= c #458659",
"- c #306449",
"; c #A25341",
": c #547759",
"> c #79664D",
", c #6D5141",
"< c #3E4E41",
"1 c #58975A",
"2 c #407D54",
"3 c #6AAE62",
"4 c #2A5D46",
"5 c #B2664E",
"6 c #BD7357",
"7 c #825241",
"8 c #AC5F49",
"9 c #3C7D59",
"0 c #000000",
"q c #607255",
"w c #925B46",
"e c #647054",
"r c #2F6D54",
"t c #367A5B",
"y c #317055",
"u c #425746",
"i c #31694E",
"p c #A85B46",
"a c #5A5C48",
"s c #2A634D",
"d c #AD604A",
"f c #534F41",
"g c #3C7A55",
"h c #725141",
"j c #334E41",
"k c #5FA462",
"l c #4F6F54",
"z c #895F48",
"x c #50905A",
"c c #4F8B56",
"v c #235646",
"b c #3F8059",
"n c #4E4F41",
"m c #8D5241",
"M c #356D4E",
"N c #A65845",
"B c #B76B52",
"V c #7D644C",
"C c #355244",
"Z c #347659",
"A c #478759",
"S c #39704D",
"D c #255A48",
"F c #42855C",
"G c #53945C",
/* pixels */
"                                ",
"                                ",
"                          .     ",
"     .X                  .o     ",
" O   O+    @  O    @  O         ",
" #X        $%&*%   $%&*%        ",
"      =-;:>,<1%,;:>,<1%,23+ .#  ",
"      o4555657,8555657,8-9   X  ",
"       >0000000000000000;$3o    ",
"   .3+qw0000000000000000errt    ",
"     yu50000000000000000e       ",
"    O3ip0000000000000000passO   ",
"    #1*,0000000000000000df3o+   ",
".  .#g%,0000000000000000hji   O ",
"#k  kk,50000000000000000fk3#  #+",
"    rrlz0000000000000000;       ",
"    O# >0000000000000000;$3o    ",
"   #X >80000000000000000errt    ",
"     x-50000000000000000e       ",
"    kcv70000000000000000passO   ",
"     kk,0000000000000000df3o+   ",
"O# #kbnm0000000000000000hji   O ",
" X  M%,d0000000000000000fk3#  #+",
"       >0000000000000000;       ",
"  ..yv$-zNffpdBVzNffpdBVCsZ     ",
"   X3*3s e$ASDpe e$ASDpe*3F     ",
"   ZrtXZ  G+$A    G+$A  tk      ",
"          # t+    # t+   #      ",
"   kO       #       #     .     ",
"    o      Ok      Ok     Ok    ",
"            X       X      +    ",
"                                "
};
