/* XPM */
static char *_58da457ab1043b4c95249fa9e9b457epsHykyP7MALBq0H3[] = {
/* columns rows colors chars-per-pixel */
"32 32 6 1 ",
"  c #3B8360",
". c #6AAE62",
"X c #1E4D41",
"o c #B6B6B6",
"O c gray60",
"+ c gray35",
/* pixels */
"                                ",
"                                ",
"                                ",
"                                ",
"                                ",
"                                ",
"                            .   ",
"                           ..   ",
"                           ..   ",
"                  ..       .    ",
"                   ..           ",
"                    .           ",
"                             XXX",
"                             ..X",
"                            ...X",
"                            . XX",
"                                ",
"                                ",
"                                ",
"                                ",
"                                ",
"                                ",
"                                ",
"                                ",
"           ooo                  ",
"          ooooo                 ",
"         OoOOoO                 ",
"         +O+o++                 ",
"         XX++XX                 ",
"           XX                   ",
"                                ",
"                                "
};
