/* XPM */
static char *_1d6d600ab6647e8aed3db1f13b72808wCXTBTBEz7l7f0Yf[] = {
/* columns rows colors chars-per-pixel */
"32 32 13 1 ",
"  c #3B8360",
". c #6AAE62",
"X c #7A444A",
"o c #5E3643",
"O c #EEA160",
"+ c #BF7958",
"@ c #A05B53",
"# c #1E4D41",
"$ c #472D3C",
"% c #26553E",
"& c #B6B6B6",
"* c gray60",
"= c gray35",
/* pixels */
"                                ",
"                                ",
"                                ",
"                                ",
"                                ",
"                                ",
"                            .   ",
"                           ..   ",
"                           ..   ",
"                  ..       .    ",
"             XoXXXo..           ",
"           XXOOOOO+oo           ",
"           oOO++++@+X        ###",
"          o+O++@@X@O+X       ..#",
"          XOO+@XX@+OOX      ...#",
"         oX+O++@@++O+oo     . ##",
"         o$XOO++++OOo$o         ",
"         $@XX+OOOO+$X@$         ",
"         $X$@XooooXX$X$         ",
"         %$X++X@@X++X$%         ",
"         %$$@o@++@o@$$%         ",
"          %%$$X@+X$$%%          ",
"            %%$$$$%%            ",
"              %%%%              ",
"           &&&                  ",
"          &&&&&                 ",
"         *&**&*                 ",
"         =*=&==                 ",
"         ##==##                 ",
"           ##                   ",
"                                ",
"                                "
};
